<svg width="8.374in" height="10.741in" viewBox="0 0 8.374 10.741" xmlns="http://www.w3.org/2000/svg" version="1.1" preserveAspectRatio="xMidYMid meet"><g id="svgGroup" stroke-linecap="round" fill-rule="evenodd" font-size="9pt" stroke="#000" stroke-width="0.25mm" fill="none" style="stroke:#000;stroke-width:0.25mm;fill:none"><path d="M 0.413 10.739 L 0.413 10.623 L 0.995 10.623 L 0.995 10.739 L 0.997 10.741 L 1.406 10.741 L 1.408 10.739 L 1.408 10.343 L 1.406 10.34 L 1.29 10.34 L 1.29 9.759 L 1.406 9.759 L 1.408 9.756 L 1.408 9.36 L 1.406 9.358 L 0.997 9.358 L 0.995 9.36 L 0.995 9.476 L 0.413 9.476 L 0.413 9.36 L 0.411 9.358 L 0.002 9.358 L 0 9.36 L 0 9.756 L 0.002 9.759 L 0.118 9.759 L 0.118 10.34 L 0.002 10.34 L 0 10.343 L 0 10.739 L 0.002 10.741 L 0.411 10.741 L 0.413 10.739 Z" id="front_outsideCutPath" stroke="#FF0000" stroke-width="0.001" style="stroke:#FF0000;stroke-width:0.001" vector-effect="non-scaling-stroke"/><path d="M 0.906 10.154 L 0.883 10.154 L 0.883 10.058 A 0.063 0.063 0 0 0 0.882 10.048 Q 0.882 10.043 0.88 10.039 A 0.027 0.027 0 0 0 0.875 10.031 Q 0.868 10.024 0.855 10.023 A 0.059 0.059 0 0 0 0.849 10.022 Q 0.834 10.022 0.824 10.028 A 0.032 0.032 0 0 0 0.815 10.035 A 0.037 0.037 0 0 0 0.809 10.046 Q 0.805 10.056 0.804 10.071 A 0.144 0.144 0 0 0 0.804 10.076 L 0.804 10.154 L 0.782 10.154 L 0.782 10.006 L 0.8 10.006 L 0.804 10.026 L 0.805 10.026 A 0.045 0.045 0 0 1 0.823 10.01 A 0.055 0.055 0 0 1 0.824 10.009 Q 0.837 10.003 0.852 10.003 Q 0.87 10.003 0.881 10.009 A 0.04 0.04 0 0 1 0.892 10.016 Q 0.902 10.026 0.905 10.045 A 0.098 0.098 0 0 1 0.906 10.057 L 0.906 10.154 Z M 0.475 10.006 L 0.475 10.023 L 0.437 10.023 L 0.437 10.154 L 0.415 10.154 L 0.415 10.023 L 0.388 10.023 L 0.388 10.013 L 0.415 10.005 L 0.415 9.997 A 0.091 0.091 0 0 1 0.417 9.976 Q 0.425 9.942 0.462 9.942 A 0.072 0.072 0 0 1 0.473 9.943 Q 0.478 9.944 0.483 9.945 A 0.145 0.145 0 0 1 0.49 9.947 L 0.484 9.965 A 0.109 0.109 0 0 0 0.476 9.963 Q 0.471 9.962 0.468 9.961 A 0.048 0.048 0 0 0 0.462 9.961 A 0.03 0.03 0 0 0 0.455 9.962 A 0.019 0.019 0 0 0 0.443 9.969 Q 0.438 9.977 0.437 9.993 A 0.106 0.106 0 0 0 0.437 9.996 L 0.437 10.006 L 0.475 10.006 Z M 1.02 10.135 L 1.02 10.153 A 0.022 0.022 0 0 1 1.017 10.154 Q 1.014 10.155 1.01 10.155 A 0.085 0.085 0 0 1 1.009 10.156 A 0.097 0.097 0 0 1 1.003 10.156 A 0.07 0.07 0 0 1 0.997 10.157 Q 0.953 10.157 0.953 10.111 L 0.953 10.023 L 0.932 10.023 L 0.932 10.013 L 0.953 10.003 L 0.963 9.972 L 0.976 9.972 L 0.976 10.006 L 1.019 10.006 L 1.019 10.023 L 0.976 10.023 L 0.976 10.11 Q 0.976 10.124 0.982 10.131 A 0.021 0.021 0 0 0 0.995 10.138 A 0.03 0.03 0 0 0 0.999 10.138 A 0.074 0.074 0 0 0 1.01 10.137 Q 1.014 10.137 1.017 10.136 Z M 0.587 10.005 L 0.584 10.026 A 0.099 0.099 0 0 0 0.577 10.024 Q 0.573 10.024 0.57 10.024 A 0.053 0.053 0 0 0 0.568 10.024 A 0.039 0.039 0 0 0 0.539 10.036 A 0.053 0.053 0 0 0 0.537 10.038 A 0.051 0.051 0 0 0 0.525 10.067 A 0.068 0.068 0 0 0 0.524 10.075 L 0.524 10.154 L 0.502 10.154 L 0.502 10.006 L 0.52 10.006 L 0.523 10.033 L 0.524 10.033 A 0.076 0.076 0 0 1 0.533 10.021 A 0.058 0.058 0 0 1 0.544 10.011 Q 0.556 10.003 0.569 10.003 A 0.103 0.103 0 0 1 0.579 10.004 A 0.075 0.075 0 0 1 0.587 10.005 Z M 0.741 10.102 A 0.116 0.116 0 0 0 0.743 10.08 A 0.132 0.132 0 0 0 0.743 10.076 Q 0.742 10.064 0.74 10.053 A 0.07 0.07 0 0 0 0.724 10.024 A 0.059 0.059 0 0 0 0.697 10.006 A 0.075 0.075 0 0 0 0.675 10.003 A 0.087 0.087 0 0 0 0.659 10.005 A 0.059 0.059 0 0 0 0.625 10.023 A 0.062 0.062 0 0 0 0.617 10.034 Q 0.607 10.052 0.607 10.08 A 0.112 0.112 0 0 0 0.608 10.098 A 0.083 0.083 0 0 0 0.615 10.121 A 0.073 0.073 0 0 0 0.617 10.124 A 0.061 0.061 0 0 0 0.639 10.147 A 0.062 0.062 0 0 0 0.653 10.154 A 0.072 0.072 0 0 0 0.674 10.157 Q 0.706 10.157 0.724 10.136 Q 0.736 10.123 0.741 10.102 Z M 0.63 10.08 A 0.114 0.114 0 0 0 0.631 10.096 Q 0.632 10.104 0.635 10.111 A 0.047 0.047 0 0 0 0.641 10.123 A 0.037 0.037 0 0 0 0.665 10.137 A 0.056 0.056 0 0 0 0.674 10.138 Q 0.697 10.138 0.708 10.123 Q 0.716 10.112 0.719 10.094 A 0.118 0.118 0 0 0 0.719 10.08 A 0.112 0.112 0 0 0 0.718 10.064 Q 0.716 10.047 0.708 10.037 A 0.037 0.037 0 0 0 0.685 10.023 A 0.057 0.057 0 0 0 0.674 10.022 A 0.053 0.053 0 0 0 0.661 10.024 A 0.036 0.036 0 0 0 0.641 10.037 A 0.046 0.046 0 0 0 0.634 10.051 Q 0.63 10.063 0.63 10.08 Z M 1.017 10.136 Q 1.018 10.136 1.019 10.136" id="front_labelLayer" stroke="#000000" fill="#000000" style="stroke:#000000;fill:#000000" vector-effect="non-scaling-stroke"/><path d="M 2.126 10.739 L 2.126 10.623 L 2.708 10.623 L 2.708 10.739 L 2.71 10.741 L 3.304 10.741 L 3.306 10.739 L 3.306 10.623 L 3.888 10.623 L 3.888 10.739 L 3.89 10.741 L 4.484 10.741 L 4.486 10.739 L 4.486 10.623 L 5.068 10.623 L 5.068 10.739 L 5.07 10.741 L 5.664 10.741 L 5.666 10.739 L 5.666 10.623 L 6.248 10.623 L 6.248 10.739 L 6.25 10.741 L 6.721 10.741 L 6.723 10.739 L 6.723 10.349 L 6.839 10.349 L 6.841 10.346 L 6.841 9.753 L 6.839 9.75 L 6.723 9.75 L 6.723 9.36 L 6.721 9.358 L 6.25 9.358 L 6.248 9.36 L 6.248 9.476 L 5.666 9.476 L 5.666 9.36 L 5.664 9.358 L 5.07 9.358 L 5.068 9.36 L 5.068 9.476 L 4.486 9.476 L 4.486 9.36 L 4.484 9.358 L 3.89 9.358 L 3.888 9.36 L 3.888 9.476 L 3.306 9.476 L 3.306 9.36 L 3.304 9.358 L 2.71 9.358 L 2.708 9.36 L 2.708 9.476 L 2.126 9.476 L 2.126 9.36 L 2.124 9.358 L 1.653 9.358 L 1.651 9.36 L 1.651 9.75 L 1.535 9.75 L 1.533 9.753 L 1.533 10.346 L 1.535 10.349 L 1.651 10.349 L 1.651 10.739 L 1.653 10.741 L 2.124 10.741 L 2.126 10.739 Z" id="left_outsideCutPath" stroke="#FF0000" stroke-width="0.001" style="stroke:#FF0000;stroke-width:0.001" vector-effect="non-scaling-stroke"/><path d="M 4.285 10.006 L 4.285 10.023 L 4.248 10.023 L 4.248 10.154 L 4.225 10.154 L 4.225 10.023 L 4.199 10.023 L 4.199 10.013 L 4.225 10.005 L 4.225 9.997 A 0.091 0.091 0 0 1 4.227 9.976 Q 4.235 9.942 4.273 9.942 A 0.072 0.072 0 0 1 4.283 9.943 Q 4.288 9.944 4.294 9.945 A 0.145 0.145 0 0 1 4.301 9.947 L 4.295 9.965 A 0.109 0.109 0 0 0 4.286 9.963 Q 4.282 9.962 4.278 9.961 A 0.048 0.048 0 0 0 4.273 9.961 A 0.03 0.03 0 0 0 4.265 9.962 A 0.019 0.019 0 0 0 4.254 9.969 Q 4.248 9.977 4.248 9.993 A 0.106 0.106 0 0 0 4.248 9.996 L 4.248 10.006 L 4.285 10.006 Z M 4.18 10.07 L 4.18 10.084 L 4.078 10.084 Q 4.079 10.102 4.085 10.114 A 0.042 0.042 0 0 0 4.092 10.124 A 0.041 0.041 0 0 0 4.113 10.136 A 0.062 0.062 0 0 0 4.127 10.137 A 0.118 0.118 0 0 0 4.171 10.128 A 0.136 0.136 0 0 0 4.174 10.127 L 4.174 10.147 A 0.135 0.135 0 0 1 4.162 10.152 A 0.103 0.103 0 0 1 4.152 10.154 A 0.094 0.094 0 0 1 4.142 10.156 Q 4.138 10.156 4.132 10.157 A 0.183 0.183 0 0 1 4.126 10.157 A 0.087 0.087 0 0 1 4.104 10.154 A 0.062 0.062 0 0 1 4.074 10.137 A 0.066 0.066 0 0 1 4.058 10.108 Q 4.056 10.097 4.055 10.085 A 0.128 0.128 0 0 1 4.055 10.081 Q 4.055 10.045 4.073 10.024 A 0.057 0.057 0 0 1 4.115 10.003 A 0.079 0.079 0 0 1 4.12 10.003 A 0.068 0.068 0 0 1 4.139 10.006 A 0.052 0.052 0 0 1 4.164 10.022 A 0.063 0.063 0 0 1 4.178 10.05 A 0.091 0.091 0 0 1 4.18 10.07 Z M 4.38 10.135 L 4.38 10.153 A 0.022 0.022 0 0 1 4.378 10.154 Q 4.375 10.155 4.371 10.155 A 0.085 0.085 0 0 1 4.37 10.156 A 0.097 0.097 0 0 1 4.363 10.156 A 0.07 0.07 0 0 1 4.358 10.157 Q 4.314 10.157 4.314 10.111 L 4.314 10.023 L 4.293 10.023 L 4.293 10.013 L 4.314 10.003 L 4.323 9.972 L 4.336 9.972 L 4.336 10.006 L 4.379 10.006 L 4.379 10.023 L 4.336 10.023 L 4.336 10.11 Q 4.336 10.124 4.343 10.131 A 0.021 0.021 0 0 0 4.356 10.138 A 0.03 0.03 0 0 0 4.36 10.138 A 0.074 0.074 0 0 0 4.371 10.137 Q 4.375 10.137 4.378 10.136 Z M 4.016 9.944 L 4.016 10.154 L 3.994 10.154 L 3.994 9.944 L 4.016 9.944 Z M 4.079 10.066 L 4.156 10.066 A 0.076 0.076 0 0 0 4.155 10.053 Q 4.153 10.041 4.147 10.033 A 0.031 0.031 0 0 0 4.128 10.023 A 0.046 0.046 0 0 0 4.12 10.022 A 0.044 0.044 0 0 0 4.107 10.024 A 0.034 0.034 0 0 0 4.092 10.034 A 0.044 0.044 0 0 0 4.083 10.048 Q 4.08 10.056 4.079 10.066 Z M 4.378 10.136 Q 4.379 10.136 4.38 10.136" id="left_labelLayer" stroke="#000000" fill="#000000" style="stroke:#000000;fill:#000000" vector-effect="non-scaling-stroke"/><path d="M 7.969 10.739 L 7.969 10.623 L 8.254 10.623 L 8.256 10.621 L 8.256 10.156 L 8.372 10.156 L 8.374 10.154 L 8.374 9.56 L 8.372 9.558 L 8.256 9.558 L 8.256 8.976 L 8.372 8.976 L 8.374 8.974 L 8.374 8.38 L 8.372 8.378 L 8.256 8.378 L 8.256 7.796 L 8.372 7.796 L 8.374 7.794 L 8.374 7.2 L 8.372 7.198 L 8.256 7.198 L 8.256 6.616 L 8.372 6.616 L 8.374 6.614 L 8.374 6.02 L 8.372 6.018 L 8.256 6.018 L 8.256 5.553 L 8.254 5.551 L 7.969 5.551 L 7.969 5.435 L 7.967 5.433 L 7.373 5.433 L 7.371 5.435 L 7.371 5.551 L 7.086 5.551 L 7.084 5.553 L 7.084 6.018 L 6.968 6.018 L 6.966 6.02 L 6.966 6.614 L 6.968 6.616 L 7.084 6.616 L 7.084 7.198 L 6.968 7.198 L 6.966 7.2 L 6.966 7.794 L 6.968 7.796 L 7.084 7.796 L 7.084 8.378 L 6.968 8.378 L 6.966 8.38 L 6.966 8.974 L 6.968 8.976 L 7.084 8.976 L 7.084 9.558 L 6.968 9.558 L 6.966 9.56 L 6.966 10.154 L 6.968 10.156 L 7.084 10.156 L 7.084 10.621 L 7.086 10.623 L 7.371 10.623 L 7.371 10.739 L 7.373 10.741 L 7.967 10.741 L 7.969 10.739 Z" id="top_outsideCutPath" stroke="#FF0000" stroke-width="0.001" style="stroke:#FF0000;stroke-width:0.001" vector-effect="non-scaling-stroke"/><path d="M 7.771 8.127 L 7.77 8.127 A 0.216 0.216 0 0 1 7.771 8.143 A 0.181 0.181 0 0 1 7.771 8.152 L 7.771 8.214 L 7.748 8.214 L 7.748 7.995 L 7.767 7.995 L 7.77 8.016 L 7.771 8.016 A 0.061 0.061 0 0 1 7.78 8.006 A 0.048 0.048 0 0 1 7.792 7.998 A 0.057 0.057 0 0 1 7.808 7.993 A 0.074 0.074 0 0 1 7.818 7.993 A 0.07 0.07 0 0 1 7.838 7.995 A 0.052 0.052 0 0 1 7.865 8.013 A 0.069 0.069 0 0 1 7.876 8.036 Q 7.881 8.051 7.881 8.071 A 0.134 0.134 0 0 1 7.879 8.093 Q 7.876 8.114 7.864 8.128 Q 7.848 8.149 7.818 8.149 A 0.069 0.069 0 0 1 7.801 8.147 A 0.06 0.06 0 0 1 7.792 8.143 A 0.051 0.051 0 0 1 7.771 8.127 Z M 7.548 8.127 L 7.548 8.145 A 0.022 0.022 0 0 1 7.546 8.146 Q 7.542 8.147 7.537 8.148 A 0.099 0.099 0 0 1 7.531 8.148 A 0.071 0.071 0 0 1 7.525 8.149 A 0.06 0.06 0 0 1 7.507 8.146 Q 7.487 8.14 7.482 8.119 A 0.072 0.072 0 0 1 7.481 8.103 L 7.481 8.013 L 7.459 8.013 L 7.459 8.002 L 7.481 7.993 L 7.49 7.96 L 7.503 7.96 L 7.503 7.995 L 7.547 7.995 L 7.547 8.013 L 7.503 8.013 L 7.503 8.102 Q 7.503 8.115 7.51 8.123 A 0.021 0.021 0 0 0 7.523 8.13 A 0.03 0.03 0 0 0 7.528 8.13 A 0.075 0.075 0 0 0 7.539 8.129 Q 7.545 8.128 7.548 8.127 Z M 7.706 8.093 A 0.118 0.118 0 0 0 7.708 8.071 A 0.134 0.134 0 0 0 7.708 8.067 Q 7.708 8.054 7.705 8.044 A 0.071 0.071 0 0 0 7.69 8.014 Q 7.671 7.993 7.639 7.993 A 0.089 0.089 0 0 0 7.624 7.994 A 0.06 0.06 0 0 0 7.588 8.013 A 0.063 0.063 0 0 0 7.581 8.024 Q 7.575 8.034 7.572 8.048 A 0.118 0.118 0 0 0 7.57 8.071 A 0.114 0.114 0 0 0 7.571 8.089 A 0.084 0.084 0 0 0 7.578 8.112 Q 7.587 8.13 7.603 8.139 A 0.064 0.064 0 0 0 7.617 8.146 A 0.073 0.073 0 0 0 7.639 8.149 A 0.089 0.089 0 0 0 7.654 8.147 A 0.061 0.061 0 0 0 7.69 8.128 A 0.064 0.064 0 0 0 7.697 8.118 Q 7.704 8.107 7.706 8.093 Z M 7.594 8.071 A 0.116 0.116 0 0 0 7.595 8.087 Q 7.597 8.104 7.605 8.115 A 0.037 0.037 0 0 0 7.629 8.129 A 0.057 0.057 0 0 0 7.639 8.13 A 0.053 0.053 0 0 0 7.653 8.128 A 0.037 0.037 0 0 0 7.673 8.115 A 0.049 0.049 0 0 0 7.681 8.1 Q 7.683 8.093 7.684 8.084 A 0.12 0.12 0 0 0 7.685 8.071 Q 7.685 8.052 7.68 8.039 A 0.047 0.047 0 0 0 7.673 8.027 A 0.038 0.038 0 0 0 7.65 8.013 A 0.058 0.058 0 0 0 7.639 8.012 A 0.054 0.054 0 0 0 7.625 8.014 A 0.036 0.036 0 0 0 7.605 8.027 Q 7.597 8.037 7.594 8.055 A 0.121 0.121 0 0 0 7.594 8.07 Z M 7.771 8.065 L 7.771 8.071 Q 7.771 8.097 7.779 8.111 A 0.034 0.034 0 0 0 7.782 8.116 Q 7.792 8.13 7.816 8.13 Q 7.835 8.13 7.845 8.115 A 0.045 0.045 0 0 0 7.846 8.114 A 0.055 0.055 0 0 0 7.854 8.098 Q 7.856 8.09 7.857 8.081 A 0.122 0.122 0 0 0 7.857 8.07 A 0.115 0.115 0 0 0 7.856 8.054 Q 7.855 8.046 7.853 8.039 A 0.048 0.048 0 0 0 7.846 8.027 A 0.036 0.036 0 0 0 7.82 8.012 A 0.049 0.049 0 0 0 7.815 8.012 A 0.066 0.066 0 0 0 7.803 8.013 Q 7.796 8.014 7.791 8.017 A 0.03 0.03 0 0 0 7.782 8.025 A 0.039 0.039 0 0 0 7.776 8.036 Q 7.771 8.048 7.771 8.065 Z M 7.545 8.128 A 0.08 0.08 0 0 1 7.543 8.128" id="top_labelLayer" stroke="#000000" fill="#000000" style="stroke:#000000;fill:#000000" vector-effect="non-scaling-stroke"/><path d="M 0.413 9.231 L 0.413 9.115 L 0.995 9.115 L 0.995 9.231 L 0.997 9.233 L 1.406 9.233 L 1.408 9.231 L 1.408 8.835 L 1.406 8.833 L 1.29 8.833 L 1.29 8.25 L 1.406 8.25 L 1.408 8.248 L 1.408 7.852 L 1.406 7.85 L 0.997 7.85 L 0.995 7.852 L 0.995 7.968 L 0.413 7.968 L 0.413 7.852 L 0.411 7.85 L 0.002 7.85 L 0 7.852 L 0 8.248 L 0.002 8.25 L 0.118 8.25 L 0.118 8.833 L 0.002 8.833 L 0 8.835 L 0 9.231 L 0.002 9.233 L 0.411 9.233 L 0.413 9.231 Z" id="back_outsideCutPath" stroke="#FF0000" stroke-width="0.001" style="stroke:#FF0000;stroke-width:0.001" vector-effect="non-scaling-stroke"/><path d="M 0.893 8.569 L 0.894 8.569 Q 0.899 8.563 0.907 8.554 A 0.481 0.481 0 0 1 0.912 8.548 L 0.96 8.497 L 0.987 8.497 L 0.927 8.56 L 0.991 8.645 L 0.964 8.645 L 0.911 8.575 L 0.894 8.59 L 0.894 8.645 L 0.872 8.645 L 0.872 8.435 L 0.894 8.435 L 0.894 8.546 A 0.149 0.149 0 0 1 0.894 8.551 Q 0.894 8.555 0.894 8.561 A 0.735 0.735 0 0 1 0.893 8.569 Z M 0.44 8.626 L 0.438 8.626 L 0.433 8.645 L 0.417 8.645 L 0.417 8.435 L 0.44 8.435 L 0.44 8.486 A 0.467 0.467 0 0 1 0.439 8.502 A 0.337 0.337 0 0 1 0.439 8.516 L 0.44 8.517 Q 0.455 8.495 0.486 8.495 A 0.069 0.069 0 0 1 0.505 8.497 A 0.051 0.051 0 0 1 0.531 8.515 A 0.066 0.066 0 0 1 0.543 8.537 Q 0.548 8.552 0.548 8.571 Q 0.548 8.597 0.539 8.614 A 0.063 0.063 0 0 1 0.531 8.628 A 0.053 0.053 0 0 1 0.494 8.648 A 0.076 0.076 0 0 1 0.486 8.648 A 0.068 0.068 0 0 1 0.469 8.646 A 0.059 0.059 0 0 1 0.46 8.643 A 0.05 0.05 0 0 1 0.44 8.626 Z M 0.694 8.645 L 0.678 8.645 L 0.673 8.624 L 0.672 8.624 Q 0.661 8.638 0.65 8.643 Q 0.641 8.647 0.628 8.648 A 0.101 0.101 0 0 1 0.623 8.648 A 0.069 0.069 0 0 1 0.609 8.647 Q 0.596 8.644 0.588 8.637 A 0.037 0.037 0 0 1 0.577 8.617 A 0.056 0.056 0 0 1 0.576 8.604 A 0.039 0.039 0 0 1 0.598 8.568 Q 0.615 8.558 0.647 8.557 L 0.673 8.556 L 0.673 8.547 A 0.064 0.064 0 0 0 0.672 8.538 Q 0.67 8.527 0.665 8.522 Q 0.659 8.515 0.647 8.514 A 0.055 0.055 0 0 0 0.641 8.513 Q 0.626 8.513 0.608 8.521 A 0.15 0.15 0 0 0 0.599 8.525 L 0.592 8.507 A 0.103 0.103 0 0 1 0.612 8.499 A 0.117 0.117 0 0 1 0.616 8.498 A 0.104 0.104 0 0 1 0.642 8.495 A 0.095 0.095 0 0 1 0.657 8.496 Q 0.673 8.498 0.682 8.507 Q 0.694 8.518 0.694 8.544 L 0.694 8.645 Z M 0.839 8.502 L 0.832 8.521 A 0.1 0.1 0 0 0 0.822 8.518 A 0.119 0.119 0 0 0 0.816 8.516 Q 0.809 8.515 0.803 8.514 A 0.05 0.05 0 0 0 0.801 8.514 Q 0.761 8.514 0.756 8.56 A 0.124 0.124 0 0 0 0.756 8.572 A 0.109 0.109 0 0 0 0.757 8.588 Q 0.759 8.604 0.767 8.614 A 0.036 0.036 0 0 0 0.79 8.628 A 0.054 0.054 0 0 0 0.799 8.628 A 0.094 0.094 0 0 0 0.825 8.625 A 0.116 0.116 0 0 0 0.837 8.62 L 0.837 8.64 A 0.064 0.064 0 0 1 0.822 8.646 Q 0.812 8.648 0.8 8.648 A 0.084 0.084 0 0 1 0.779 8.646 A 0.057 0.057 0 0 1 0.75 8.628 A 0.065 0.065 0 0 1 0.736 8.603 Q 0.734 8.594 0.733 8.582 A 0.136 0.136 0 0 1 0.732 8.572 A 0.124 0.124 0 0 1 0.734 8.55 Q 0.737 8.537 0.742 8.527 A 0.062 0.062 0 0 1 0.75 8.515 Q 0.768 8.494 0.801 8.494 Q 0.812 8.494 0.823 8.497 A 0.112 0.112 0 0 1 0.829 8.498 Q 0.835 8.5 0.839 8.502 Z M 0.483 8.514 A 0.063 0.063 0 0 0 0.471 8.515 Q 0.464 8.516 0.458 8.519 A 0.03 0.03 0 0 0 0.45 8.527 A 0.038 0.038 0 0 0 0.444 8.537 Q 0.441 8.548 0.44 8.564 A 0.173 0.173 0 0 0 0.44 8.571 A 0.148 0.148 0 0 0 0.44 8.586 Q 0.442 8.606 0.45 8.616 Q 0.46 8.629 0.483 8.629 A 0.045 0.045 0 0 0 0.496 8.627 A 0.032 0.032 0 0 0 0.514 8.614 Q 0.521 8.603 0.524 8.586 A 0.128 0.128 0 0 0 0.524 8.571 A 0.132 0.132 0 0 0 0.524 8.556 Q 0.522 8.538 0.514 8.528 A 0.033 0.033 0 0 0 0.493 8.515 A 0.052 0.052 0 0 0 0.483 8.514 Z M 0.672 8.586 L 0.672 8.572 L 0.65 8.573 A 0.165 0.165 0 0 0 0.636 8.574 Q 0.623 8.576 0.615 8.579 A 0.034 0.034 0 0 0 0.611 8.582 Q 0.599 8.589 0.599 8.605 A 0.032 0.032 0 0 0 0.6 8.612 Q 0.601 8.618 0.605 8.621 A 0.02 0.02 0 0 0 0.607 8.623 Q 0.613 8.629 0.624 8.629 A 0.05 0.05 0 0 0 0.627 8.629 A 0.062 0.062 0 0 0 0.64 8.628 Q 0.65 8.626 0.657 8.621 A 0.037 0.037 0 0 0 0.66 8.618 A 0.038 0.038 0 0 0 0.671 8.599 A 0.057 0.057 0 0 0 0.672 8.586 Z" id="back_labelLayer" stroke="#000000" fill="#000000" style="stroke:#000000;fill:#000000" vector-effect="non-scaling-stroke"/><path d="M 2.126 9.231 L 2.126 9.115 L 2.708 9.115 L 2.708 9.231 L 2.71 9.233 L 3.304 9.233 L 3.306 9.231 L 3.306 9.115 L 3.888 9.115 L 3.888 9.231 L 3.89 9.233 L 4.484 9.233 L 4.486 9.231 L 4.486 9.115 L 5.068 9.115 L 5.068 9.231 L 5.07 9.233 L 5.664 9.233 L 5.666 9.231 L 5.666 9.115 L 6.248 9.115 L 6.248 9.231 L 6.25 9.233 L 6.721 9.233 L 6.723 9.231 L 6.723 8.84 L 6.839 8.84 L 6.841 8.838 L 6.841 8.245 L 6.839 8.243 L 6.723 8.243 L 6.723 7.852 L 6.721 7.85 L 6.25 7.85 L 6.248 7.852 L 6.248 7.968 L 5.666 7.968 L 5.666 7.852 L 5.664 7.85 L 5.07 7.85 L 5.068 7.852 L 5.068 7.968 L 4.486 7.968 L 4.486 7.852 L 4.484 7.85 L 3.89 7.85 L 3.888 7.852 L 3.888 7.968 L 3.306 7.968 L 3.306 7.852 L 3.304 7.85 L 2.71 7.85 L 2.708 7.852 L 2.708 7.968 L 2.126 7.968 L 2.126 7.852 L 2.124 7.85 L 1.653 7.85 L 1.651 7.852 L 1.651 8.243 L 1.535 8.243 L 1.533 8.245 L 1.533 8.838 L 1.535 8.84 L 1.651 8.84 L 1.651 9.231 L 1.653 9.233 L 2.124 9.233 L 2.126 9.231 Z" id="right_outsideCutPath" stroke="#FF0000" stroke-width="0.001" style="stroke:#FF0000;stroke-width:0.001" vector-effect="non-scaling-stroke"/><path d="M 4.359 8.613 L 4.337 8.613 L 4.337 8.518 A 0.063 0.063 0 0 0 4.336 8.508 Q 4.335 8.502 4.333 8.498 A 0.027 0.027 0 0 0 4.328 8.491 Q 4.322 8.483 4.309 8.482 A 0.059 0.059 0 0 0 4.303 8.482 A 0.068 0.068 0 0 0 4.29 8.483 Q 4.283 8.484 4.277 8.487 A 0.031 0.031 0 0 0 4.268 8.494 A 0.037 0.037 0 0 0 4.262 8.506 Q 4.258 8.516 4.258 8.531 A 0.145 0.145 0 0 0 4.258 8.536 L 4.258 8.613 L 4.235 8.613 L 4.235 8.403 L 4.258 8.403 L 4.258 8.467 A 0.202 0.202 0 0 1 4.258 8.475 Q 4.257 8.481 4.257 8.486 L 4.258 8.486 A 0.045 0.045 0 0 1 4.274 8.471 A 0.055 0.055 0 0 1 4.277 8.469 A 0.058 0.058 0 0 1 4.296 8.463 A 0.073 0.073 0 0 1 4.305 8.463 Q 4.323 8.463 4.335 8.468 A 0.04 0.04 0 0 1 4.345 8.476 A 0.039 0.039 0 0 1 4.355 8.491 Q 4.359 8.502 4.359 8.517 L 4.359 8.613 Z M 4.154 8.465 L 4.205 8.465 L 4.205 8.48 L 4.177 8.483 Q 4.181 8.487 4.184 8.495 A 0.043 0.043 0 0 1 4.187 8.505 A 0.055 0.055 0 0 1 4.187 8.512 A 0.051 0.051 0 0 1 4.185 8.528 A 0.042 0.042 0 0 1 4.172 8.547 A 0.05 0.05 0 0 1 4.153 8.557 Q 4.143 8.56 4.132 8.56 A 0.072 0.072 0 0 1 4.123 8.56 A 0.061 0.061 0 0 1 4.119 8.559 Q 4.111 8.563 4.107 8.569 A 0.017 0.017 0 0 0 4.105 8.578 A 0.012 0.012 0 0 0 4.105 8.582 A 0.009 0.009 0 0 0 4.11 8.587 A 0.016 0.016 0 0 0 4.113 8.588 Q 4.118 8.59 4.127 8.59 L 4.153 8.59 A 0.092 0.092 0 0 1 4.167 8.591 Q 4.174 8.592 4.18 8.594 A 0.041 0.041 0 0 1 4.19 8.6 Q 4.203 8.61 4.203 8.629 A 0.049 0.049 0 0 1 4.2 8.646 A 0.041 0.041 0 0 1 4.184 8.666 A 0.067 0.067 0 0 1 4.166 8.675 Q 4.157 8.677 4.147 8.679 A 0.178 0.178 0 0 1 4.126 8.68 A 0.126 0.126 0 0 1 4.109 8.679 Q 4.1 8.678 4.093 8.675 A 0.052 0.052 0 0 1 4.081 8.669 Q 4.065 8.658 4.065 8.638 Q 4.065 8.625 4.074 8.615 A 0.039 0.039 0 0 1 4.087 8.605 A 0.055 0.055 0 0 1 4.098 8.602 A 0.023 0.023 0 0 1 4.089 8.594 A 0.021 0.021 0 0 1 4.085 8.583 A 0.026 0.026 0 0 1 4.085 8.581 A 0.026 0.026 0 0 1 4.086 8.573 A 0.023 0.023 0 0 1 4.089 8.567 A 0.032 0.032 0 0 1 4.093 8.562 Q 4.096 8.56 4.099 8.558 A 0.071 0.071 0 0 1 4.103 8.555 A 0.039 0.039 0 0 1 4.086 8.542 A 0.049 0.049 0 0 1 4.084 8.539 A 0.046 0.046 0 0 1 4.077 8.517 A 0.057 0.057 0 0 1 4.077 8.513 A 0.065 0.065 0 0 1 4.079 8.498 A 0.043 0.043 0 0 1 4.091 8.476 A 0.048 0.048 0 0 1 4.11 8.466 Q 4.117 8.463 4.126 8.463 A 0.099 0.099 0 0 1 4.133 8.463 A 0.086 0.086 0 0 1 4.144 8.463 A 0.065 0.065 0 0 1 4.154 8.465 Z M 4.473 8.595 L 4.473 8.612 A 0.022 0.022 0 0 1 4.471 8.613 Q 4.468 8.614 4.464 8.615 A 0.085 0.085 0 0 1 4.462 8.615 A 0.097 0.097 0 0 1 4.456 8.616 A 0.07 0.07 0 0 1 4.45 8.616 Q 4.407 8.616 4.407 8.571 L 4.407 8.483 L 4.385 8.483 L 4.385 8.472 L 4.407 8.463 L 4.416 8.431 L 4.429 8.431 L 4.429 8.465 L 4.472 8.465 L 4.472 8.483 L 4.429 8.483 L 4.429 8.57 Q 4.429 8.583 4.435 8.59 A 0.021 0.021 0 0 0 4.448 8.597 A 0.03 0.03 0 0 0 4.453 8.598 A 0.074 0.074 0 0 0 4.464 8.597 Q 4.468 8.596 4.47 8.596 Z M 3.986 8.464 L 3.983 8.485 A 0.099 0.099 0 0 0 3.976 8.484 Q 3.972 8.483 3.969 8.483 A 0.053 0.053 0 0 0 3.967 8.483 A 0.039 0.039 0 0 0 3.938 8.495 A 0.053 0.053 0 0 0 3.936 8.498 A 0.051 0.051 0 0 0 3.924 8.526 A 0.068 0.068 0 0 0 3.923 8.534 L 3.923 8.613 L 3.901 8.613 L 3.901 8.465 L 3.919 8.465 L 3.922 8.493 L 3.923 8.493 A 0.076 0.076 0 0 1 3.931 8.481 A 0.058 0.058 0 0 1 3.943 8.47 Q 3.954 8.463 3.968 8.463 A 0.103 0.103 0 0 1 3.978 8.463 A 0.075 0.075 0 0 1 3.986 8.464 Z M 4.036 8.465 L 4.036 8.613 L 4.014 8.613 L 4.014 8.465 L 4.036 8.465 Z M 4.146 8.61 L 4.119 8.61 A 0.052 0.052 0 0 0 4.11 8.611 Q 4.101 8.612 4.095 8.617 A 0.024 0.024 0 0 0 4.088 8.631 A 0.036 0.036 0 0 0 4.087 8.638 A 0.023 0.023 0 0 0 4.088 8.647 Q 4.091 8.653 4.097 8.656 A 0.036 0.036 0 0 0 4.106 8.66 Q 4.114 8.663 4.126 8.663 A 0.151 0.151 0 0 0 4.141 8.662 Q 4.155 8.661 4.165 8.656 A 0.037 0.037 0 0 0 4.168 8.654 Q 4.181 8.646 4.181 8.631 Q 4.181 8.624 4.179 8.619 A 0.014 0.014 0 0 0 4.174 8.615 A 0.021 0.021 0 0 0 4.169 8.612 Q 4.161 8.61 4.146 8.61 Z M 4.099 8.513 A 0.044 0.044 0 0 0 4.1 8.522 Q 4.101 8.528 4.104 8.532 A 0.024 0.024 0 0 0 4.108 8.536 Q 4.116 8.543 4.129 8.544 A 0.058 0.058 0 0 0 4.132 8.544 A 0.049 0.049 0 0 0 4.145 8.543 Q 4.165 8.537 4.165 8.512 A 0.048 0.048 0 0 0 4.163 8.499 Q 4.159 8.484 4.144 8.48 A 0.049 0.049 0 0 0 4.132 8.479 A 0.047 0.047 0 0 0 4.122 8.48 Q 4.116 8.481 4.112 8.484 A 0.026 0.026 0 0 0 4.108 8.487 A 0.027 0.027 0 0 0 4.101 8.498 Q 4.099 8.505 4.099 8.513 Z M 4.038 8.429 A 0.023 0.023 0 0 0 4.038 8.425 Q 4.038 8.422 4.037 8.419 A 0.011 0.011 0 0 0 4.034 8.414 A 0.013 0.013 0 0 0 4.025 8.41 A 0.017 0.017 0 0 0 4.024 8.41 A 0.013 0.013 0 0 0 4.016 8.414 Q 4.012 8.418 4.012 8.425 A 0.026 0.026 0 0 0 4.012 8.428 Q 4.013 8.433 4.016 8.436 A 0.013 0.013 0 0 0 4.02 8.439 A 0.014 0.014 0 0 0 4.025 8.44 A 0.013 0.013 0 0 0 4.034 8.436 A 0.011 0.011 0 0 0 4.037 8.434 Z M 4.038 8.429 Q 4.038 8.432 4.037 8.434 M 4.47 8.596 Q 4.472 8.595 4.473 8.595" id="right_labelLayer" stroke="#000000" fill="#000000" style="stroke:#000000;fill:#000000" vector-effect="non-scaling-stroke"/><path d="M 7.969 5.306 L 7.969 5.19 L 8.254 5.19 L 8.256 5.188 L 8.256 4.723 L 8.372 4.723 L 8.374 4.721 L 8.374 4.127 L 8.372 4.125 L 8.256 4.125 L 8.256 3.543 L 8.372 3.543 L 8.374 3.541 L 8.374 2.947 L 8.372 2.945 L 8.256 2.945 L 8.256 2.363 L 8.372 2.363 L 8.374 2.361 L 8.374 1.767 L 8.372 1.765 L 8.256 1.765 L 8.256 1.183 L 8.372 1.183 L 8.374 1.181 L 8.374 0.587 L 8.372 0.585 L 8.256 0.585 L 8.256 0.12 L 8.254 0.118 L 7.969 0.118 L 7.969 0.002 L 7.967 0 L 7.373 0 L 7.371 0.002 L 7.371 0.118 L 7.086 0.118 L 7.084 0.12 L 7.084 0.585 L 6.968 0.585 L 6.966 0.587 L 6.966 1.181 L 6.968 1.183 L 7.084 1.183 L 7.084 1.765 L 6.968 1.765 L 6.966 1.767 L 6.966 2.361 L 6.968 2.363 L 7.084 2.363 L 7.084 2.945 L 6.968 2.945 L 6.966 2.947 L 6.966 3.541 L 6.968 3.543 L 7.084 3.543 L 7.084 4.125 L 6.968 4.125 L 6.966 4.127 L 6.966 4.721 L 6.968 4.723 L 7.084 4.723 L 7.084 5.188 L 7.086 5.19 L 7.371 5.19 L 7.371 5.306 L 7.373 5.308 L 7.967 5.308 L 7.969 5.306 Z" id="bottom_outsideCutPath" stroke="#FF0000" stroke-width="0.001" style="stroke:#FF0000;stroke-width:0.001" vector-effect="non-scaling-stroke"/><path d="M 8.133 2.76 L 8.11 2.76 L 8.11 2.662 A 0.067 0.067 0 0 0 8.11 2.652 Q 8.108 2.641 8.103 2.635 A 0.024 0.024 0 0 0 8.092 2.627 Q 8.088 2.626 8.083 2.626 A 0.053 0.053 0 0 0 8.079 2.626 A 0.059 0.059 0 0 0 8.067 2.627 Q 8.06 2.628 8.054 2.632 A 0.03 0.03 0 0 0 8.047 2.638 A 0.038 0.038 0 0 0 8.041 2.65 Q 8.037 2.66 8.037 2.675 L 8.037 2.76 L 8.014 2.76 L 8.014 2.662 A 0.067 0.067 0 0 0 8.014 2.652 Q 8.012 2.641 8.007 2.635 A 0.024 0.024 0 0 0 7.996 2.627 Q 7.99 2.626 7.983 2.626 A 0.057 0.057 0 0 0 7.971 2.627 Q 7.964 2.628 7.958 2.632 A 0.03 0.03 0 0 0 7.951 2.638 A 0.038 0.038 0 0 0 7.945 2.649 Q 7.942 2.66 7.941 2.675 A 0.159 0.159 0 0 0 7.941 2.681 L 7.941 2.76 L 7.918 2.76 L 7.918 2.609 L 7.937 2.609 L 7.941 2.63 L 7.942 2.63 A 0.045 0.045 0 0 1 7.96 2.612 A 0.054 0.054 0 0 1 7.981 2.606 A 0.065 0.065 0 0 1 7.986 2.606 Q 8.022 2.606 8.032 2.632 L 8.034 2.632 A 0.048 0.048 0 0 1 8.051 2.614 A 0.057 0.057 0 0 1 8.053 2.613 A 0.058 0.058 0 0 1 8.074 2.607 A 0.072 0.072 0 0 1 8.082 2.606 A 0.079 0.079 0 0 1 8.097 2.607 Q 8.105 2.609 8.111 2.612 A 0.038 0.038 0 0 1 8.121 2.619 A 0.039 0.039 0 0 1 8.129 2.633 Q 8.131 2.639 8.132 2.647 A 0.105 0.105 0 0 1 8.133 2.661 L 8.133 2.76 Z M 7.23 2.74 L 7.228 2.74 L 7.223 2.76 L 7.207 2.76 L 7.207 2.546 L 7.23 2.546 L 7.23 2.598 A 0.476 0.476 0 0 1 7.229 2.614 A 0.343 0.343 0 0 1 7.229 2.628 L 7.23 2.629 A 0.052 0.052 0 0 1 7.267 2.607 A 0.078 0.078 0 0 1 7.277 2.606 A 0.07 0.07 0 0 1 7.297 2.609 A 0.052 0.052 0 0 1 7.323 2.627 A 0.067 0.067 0 0 1 7.335 2.649 Q 7.338 2.659 7.339 2.67 A 0.147 0.147 0 0 1 7.339 2.684 A 0.134 0.134 0 0 1 7.338 2.707 Q 7.334 2.728 7.323 2.742 Q 7.306 2.762 7.277 2.762 A 0.069 0.069 0 0 1 7.259 2.76 A 0.06 0.06 0 0 1 7.25 2.757 A 0.051 0.051 0 0 1 7.23 2.74 Z M 7.619 2.741 L 7.619 2.758 A 0.022 0.022 0 0 1 7.616 2.759 Q 7.613 2.76 7.608 2.761 A 0.099 0.099 0 0 1 7.601 2.762 A 0.071 0.071 0 0 1 7.596 2.762 A 0.06 0.06 0 0 1 7.577 2.76 Q 7.558 2.754 7.553 2.733 A 0.072 0.072 0 0 1 7.551 2.716 L 7.551 2.627 L 7.529 2.627 L 7.529 2.616 L 7.551 2.606 L 7.561 2.574 L 7.574 2.574 L 7.574 2.609 L 7.618 2.609 L 7.618 2.627 L 7.574 2.627 L 7.574 2.715 Q 7.574 2.729 7.58 2.736 A 0.021 0.021 0 0 0 7.593 2.743 A 0.03 0.03 0 0 0 7.598 2.744 A 0.075 0.075 0 0 0 7.609 2.743 Q 7.615 2.742 7.618 2.741 Z M 7.718 2.741 L 7.718 2.758 A 0.022 0.022 0 0 1 7.715 2.759 Q 7.712 2.76 7.707 2.761 A 0.099 0.099 0 0 1 7.701 2.762 A 0.071 0.071 0 0 1 7.695 2.762 A 0.06 0.06 0 0 1 7.677 2.76 Q 7.657 2.754 7.652 2.733 A 0.072 0.072 0 0 1 7.65 2.716 L 7.65 2.627 L 7.629 2.627 L 7.629 2.616 L 7.65 2.606 L 7.66 2.574 L 7.673 2.574 L 7.673 2.609 L 7.717 2.609 L 7.717 2.627 L 7.673 2.627 L 7.673 2.715 Q 7.673 2.729 7.68 2.736 A 0.021 0.021 0 0 0 7.693 2.743 A 0.03 0.03 0 0 0 7.697 2.744 A 0.075 0.075 0 0 0 7.708 2.743 Q 7.715 2.742 7.718 2.741 Z M 7.507 2.707 A 0.118 0.118 0 0 0 7.509 2.684 A 0.134 0.134 0 0 0 7.509 2.68 Q 7.509 2.668 7.506 2.657 A 0.071 0.071 0 0 0 7.491 2.627 Q 7.472 2.606 7.441 2.606 A 0.089 0.089 0 0 0 7.425 2.608 A 0.06 0.06 0 0 0 7.389 2.627 A 0.063 0.063 0 0 0 7.382 2.637 Q 7.376 2.648 7.373 2.661 A 0.118 0.118 0 0 0 7.371 2.684 A 0.114 0.114 0 0 0 7.372 2.703 A 0.084 0.084 0 0 0 7.379 2.726 Q 7.388 2.743 7.404 2.753 A 0.064 0.064 0 0 0 7.418 2.759 A 0.073 0.073 0 0 0 7.44 2.762 A 0.089 0.089 0 0 0 7.455 2.761 A 0.061 0.061 0 0 0 7.491 2.742 A 0.064 0.064 0 0 0 7.498 2.731 Q 7.505 2.721 7.507 2.707 Z M 7.876 2.707 A 0.118 0.118 0 0 0 7.878 2.684 A 0.134 0.134 0 0 0 7.878 2.68 Q 7.878 2.668 7.875 2.657 A 0.071 0.071 0 0 0 7.86 2.627 Q 7.841 2.606 7.809 2.606 A 0.089 0.089 0 0 0 7.794 2.608 A 0.06 0.06 0 0 0 7.758 2.627 A 0.063 0.063 0 0 0 7.751 2.637 Q 7.745 2.648 7.742 2.661 A 0.118 0.118 0 0 0 7.74 2.684 A 0.114 0.114 0 0 0 7.741 2.703 A 0.084 0.084 0 0 0 7.748 2.726 Q 7.757 2.743 7.773 2.753 A 0.064 0.064 0 0 0 7.787 2.759 A 0.073 0.073 0 0 0 7.808 2.762 A 0.089 0.089 0 0 0 7.824 2.761 A 0.061 0.061 0 0 0 7.86 2.742 A 0.064 0.064 0 0 0 7.867 2.731 Q 7.874 2.721 7.876 2.707 Z M 7.395 2.684 A 0.116 0.116 0 0 0 7.396 2.701 Q 7.398 2.718 7.406 2.728 A 0.037 0.037 0 0 0 7.431 2.742 A 0.057 0.057 0 0 0 7.44 2.743 A 0.053 0.053 0 0 0 7.454 2.741 A 0.037 0.037 0 0 0 7.474 2.728 A 0.049 0.049 0 0 0 7.482 2.713 Q 7.484 2.706 7.485 2.698 A 0.12 0.12 0 0 0 7.486 2.684 Q 7.486 2.666 7.481 2.653 A 0.047 0.047 0 0 0 7.474 2.64 A 0.038 0.038 0 0 0 7.451 2.627 A 0.058 0.058 0 0 0 7.44 2.626 A 0.054 0.054 0 0 0 7.426 2.627 A 0.036 0.036 0 0 0 7.406 2.64 Q 7.398 2.651 7.395 2.669 A 0.121 0.121 0 0 0 7.395 2.684 Z M 7.763 2.684 A 0.116 0.116 0 0 0 7.765 2.701 Q 7.767 2.718 7.775 2.728 A 0.037 0.037 0 0 0 7.799 2.742 A 0.057 0.057 0 0 0 7.809 2.743 A 0.053 0.053 0 0 0 7.823 2.741 A 0.037 0.037 0 0 0 7.843 2.728 A 0.049 0.049 0 0 0 7.851 2.713 Q 7.853 2.706 7.854 2.698 A 0.12 0.12 0 0 0 7.855 2.684 Q 7.855 2.666 7.85 2.653 A 0.047 0.047 0 0 0 7.843 2.64 A 0.038 0.038 0 0 0 7.82 2.627 A 0.058 0.058 0 0 0 7.809 2.626 A 0.054 0.054 0 0 0 7.795 2.627 A 0.036 0.036 0 0 0 7.775 2.64 Q 7.767 2.651 7.764 2.669 A 0.121 0.121 0 0 0 7.763 2.684 Z M 7.274 2.626 Q 7.25 2.626 7.24 2.639 A 0.039 0.039 0 0 0 7.234 2.65 Q 7.23 2.66 7.23 2.677 A 0.176 0.176 0 0 0 7.23 2.684 Q 7.23 2.711 7.237 2.725 A 0.034 0.034 0 0 0 7.24 2.73 Q 7.251 2.743 7.274 2.743 A 0.046 0.046 0 0 0 7.287 2.742 A 0.033 0.033 0 0 0 7.305 2.728 A 0.052 0.052 0 0 0 7.312 2.714 Q 7.316 2.701 7.316 2.684 A 0.135 0.135 0 0 0 7.315 2.668 Q 7.313 2.65 7.305 2.64 A 0.033 0.033 0 0 0 7.284 2.627 A 0.053 0.053 0 0 0 7.274 2.626 Z M 7.616 2.741 A 0.08 0.08 0 0 1 7.613 2.742 M 7.715 2.741 A 0.08 0.08 0 0 1 7.712 2.742" id="bottom_labelLayer" stroke="#000000" fill="#000000" style="stroke:#000000;fill:#000000" vector-effect="non-scaling-stroke"/></g></svg>